<?xml version="1.0" encoding="UTF-8" standalone="no"?>
<!-- Created with Inkscape (http://www.inkscape.org/) -->

<svg
   version="1.1"
   id="svg2"
   viewBox="0 0 125.62889 130.24"
   sodipodi:docname="honeycomb.svg"
   inkscape:version="1.2.2 (732a01da63, 2022-12-09)"
   xmlns:inkscape="http://www.inkscape.org/namespaces/inkscape"
   xmlns:sodipodi="http://sodipodi.sourceforge.net/DTD/sodipodi-0.dtd"
   xmlns="http://www.w3.org/2000/svg"
   xmlns:svg="http://www.w3.org/2000/svg">
  <defs
     id="defs6" />
  <sodipodi:namedview
     id="namedview4"
     pagecolor="#505050"
     bordercolor="#eeeeee"
     borderopacity="1"
     inkscape:showpageshadow="0"
     inkscape:pageopacity="0"
     inkscape:pagecheckerboard="0"
     inkscape:deskcolor="#505050"
     showgrid="false"
     inkscape:zoom="5.0572521"
     inkscape:cx="82.653581"
     inkscape:cy="83.839996"
     inkscape:window-width="1920"
     inkscape:window-height="1046"
     inkscape:window-x="-11"
     inkscape:window-y="-11"
     inkscape:window-maximized="1"
     inkscape:current-layer="g8" />
  <g
     inkscape:groupmode="layer"
     inkscape:label="Image"
     id="g8"
     transform="translate(-18.145555,-19.519999)">
    <path
      style="stroke-width: 4px; stroke: #0f172a"
       d="m 61.241802,139.27999 -6.041802,-10.48 -11.892323,-0.0839 -11.892321,-0.0839 -6.628777,-11.43613 c -3.645827,-6.28988 -6.634282,-11.59449 -6.641011,-11.78805 -0.0067,-0.19355 2.603765,-4.88956 5.801099,-10.435574 C 27.144,89.426487 29.76,84.721349 29.76,84.516641 c 0,-0.296467 -9.671569,-17.366709 -11.374941,-20.07668 -0.392068,-0.623757 0.127479,-1.643347 6.277831,-12.319999 l 6.705273,-11.639964 12.019731,-0.16 12.019732,-0.16 5.935251,-10.32 5.935254,-10.319999 H 80.771526 94.26492 l 5.95265,10.319999 5.95264,10.32 12.19081,0.16 12.19081,0.16 6.70528,11.639964 c 6.15035,10.676652 6.6699,11.696242 6.27783,12.319999 -1.70337,2.709971 -11.37494,19.780213 -11.37494,20.07668 0,0.204708 2.616,4.909846 5.81333,10.455865 3.19734,5.546014 5.80783,10.242024 5.8011,10.435574 -0.007,0.19356 -2.99619,5.49991 -6.64325,11.79191 l -6.63101,11.44 h -11.94829 -11.9483 l -0.60458,0.88 c -0.33251,0.484 -3.1088,5.236 -6.16952,10.56 l -5.56496,9.68 H 80.774061 67.2836 Z m 35.348688,-3.77592 5.23049,-9.12371 -4.08962,-7.11018 c -2.24929,-3.9106 -4.603008,-8.01038 -5.230486,-9.11061 L 91.36,108.15916 l -10.559594,0.0804 -10.55959,0.0804 -5.19839,8.96 c -3.010647,5.18919 -5.123466,9.16201 -5.020362,9.44 0.09792,0.264 2.437008,4.40189 5.197981,9.1953 l 5.019955,8.7153 10.56,-0.001 10.56,-0.001 5.23049,-9.12371 z m -16.517229,3.64118 c -0.501635,-0.50163 -0.506535,-1.62398 -0.0092,-2.12126 0.240265,-0.24026 1.467987,-0.38808 3.28,-0.39489 l 2.896,-0.0109 1.76,-2.9491 c 1.810032,-3.03293 2.637801,-3.65405 3.697613,-2.77448 0.811107,0.67316 0.508771,1.66538 -1.555632,5.10538 l -2.016394,3.36 -3.829533,0.0893 c -2.706317,0.0631 -3.944877,-0.0261 -4.222793,-0.304 z M 60.74433,114.39832 65.968659,105.29555 61.407866,97.36777 C 58.89943,93.007492 56.510675,88.899995 56.099523,88.239995 l -0.747552,-1.2 H 44.977776 34.603581 l -0.606285,0.88 c -1.347386,1.955686 -10.045871,17.370685 -9.945377,17.624685 0.05944,0.15024 2.405273,4.25615 5.212953,9.12424 l 5.104872,8.85107 10.575126,-0.009 10.57513,-0.009 5.22433,-9.10277 z m -16.573072,4.02271 c -0.450045,-0.84092 -0.418074,-1.16851 0.1716,-1.75818 0.380998,-0.381 1.18568,-0.50286 3.320572,-0.50286 h 2.817719 l 1.814128,-3.04 c 1.481021,-2.48179 1.954128,-3.04 2.576569,-3.04 0.799738,0 1.768154,0.74976 1.768154,1.36893 0,0.413 -3.357766,6.1781 -4.095107,7.03107 -0.410083,0.4744 -1.061789,0.56 -4.263229,0.56 -3.408826,0 -3.811606,-0.0607 -4.110406,-0.61896 z m 88.483872,-3.75211 c 2.80768,-4.86809 5.15351,-8.974 5.21295,-9.12424 0.10065,-0.25439 -8.59954,-15.671425 -9.94847,-17.629024 l -0.60937,-0.884343 -10.45512,0.08434 -10.45512,0.08434 -5.23476,9.047334 -5.23476,9.047333 5.2273,9.11267 5.22729,9.11266 h 10.58259 10.5826 z m -16.18661,3.70961 c -0.27538,-0.51453 -0.2407,-0.83438 0.15611,-1.44 0.47717,-0.72824 0.69422,-0.77854 3.35958,-0.77854 h 2.84945 l 1.19233,-2 c 1.93912,-3.25266 2.64865,-4.08 3.49904,-4.08 0.87683,0 1.59305,1.04157 1.28245,1.86501 -0.11099,0.29424 -1.07351,2.01099 -2.13895,3.81499 l -1.93714,3.28 h -3.95444 c -3.66969,0 -3.97992,-0.0476 -4.30843,-0.66146 z M 96.43883,94.199991 c 2.79336,-4.855312 5.14771,-9.091234 5.23189,-9.413164 0.096,-0.366998 -1.78024,-3.935139 -5.03008,-9.566076 L 91.457485,66.239996 H 80.96 70.462515 l -5.183152,8.980755 c -3.24984,5.630937 -5.126057,9.199078 -5.030086,9.566076 0.08418,0.32193 2.438537,4.557852 5.231894,9.413164 L 70.56,103.02783 h 10.4 10.4 z m -16.255972,2.897146 c -0.695146,-0.695146 -0.632826,-1.965069 0.116105,-2.365885 0.340429,-0.182192 1.820899,-0.331258 3.289933,-0.331258 h 2.67097 l 1.706857,-2.883135 c 1.202963,-2.031988 1.933395,-2.939997 2.474221,-3.075735 0.95383,-0.239395 1.719056,0.358506 1.719056,1.343168 0,0.926269 -3.667338,7.060777 -4.481597,7.496557 -0.327981,0.175529 -2.03551,0.319145 -3.794509,0.319145 -2.480771,0 -3.310979,-0.1128 -3.701036,-0.502857 z M 60.613334,73.056418 c 2.801332,-4.870608 5.093332,-9.00902 5.093332,-9.196476 0,-0.187453 -2.346653,-4.408627 -5.214788,-9.380387 l -5.214787,-9.039558 -10.438547,0.0047 -10.438544,0.0047 -5.100935,8.854345 c -2.805515,4.869887 -5.109515,9.079772 -5.12,9.355298 -0.01049,0.275527 2.279479,4.496957 5.08881,9.380957 l 5.107875,8.879999 10.572125,-0.004 10.572125,-0.004 5.093334,-8.855644 z M 44.544,75.775995 c -0.2112,-0.2112 -0.384,-0.686399 -0.384,-1.055999 0,-1.188541 0.620067,-1.44 3.550877,-1.44 h 2.78288 l 1.524163,-2.48 c 0.838288,-1.364 1.73951,-2.732 2.002717,-3.04 0.883917,-1.034349 2.619363,-0.522381 2.619363,0.772726 0,0.608461 -3.710131,6.993533 -4.289629,7.382374 -0.606515,0.40697 -7.381011,0.286259 -7.806371,-0.139101 z m 88.10812,-2.735999 c 2.80934,-4.884 5.10008,-9.098134 5.09056,-9.364739 -0.01,-0.266608 -2.31353,-4.475872 -5.12,-9.353919 l -5.10268,-8.869174 -10.56,0.0033 -10.56,0.0033 -5.22964,9.12189 -5.22963,9.121888 4.08876,7.108703 c 2.24882,3.909789 4.60216,8.007369 5.22964,9.105741 l 1.14087,1.99704 10.57212,0.0029 10.57213,0.0029 5.10787,-8.88 z M 116.864,75.775995 c -0.50783,-0.507827 -0.48964,-1.689961 0.0327,-2.123436 0.22917,-0.190189 1.68698,-0.387821 3.23958,-0.439181 l 2.82292,-0.09338 1.80563,-2.88 c 1.85188,-2.953766 2.69621,-3.565696 3.73282,-2.705382 0.81825,0.679081 0.50182,1.675161 -1.64727,5.185382 l -2.1061,3.439999 h -3.74812 c -2.48854,0 -3.87717,-0.129046 -4.13212,-0.384 z M 92.500874,59.117033 c 0.627478,-1.098371 2.982176,-5.198319 5.232656,-9.111001 l 4.09179,-7.113964 -4.56396,-7.926035 c -2.51018,-4.359319 -4.902688,-8.466035 -5.316678,-9.126035 l -0.752711,-1.199999 -10.475984,0.003 -10.475987,0.003 -1.140874,1.997037 c -0.627478,1.098371 -2.969395,5.176073 -5.204262,9.061562 l -4.063389,7.064525 4.508301,7.815474 c 2.479565,4.298512 4.863552,8.427475 5.29775,9.175475 l 0.789453,1.36 10.466509,-0.0029 10.466512,-0.0029 1.140874,-1.99704 z m -12.429671,-3.93518 c -0.863645,-0.604922 -0.913235,-1.459827 -0.126006,-2.172259 0.448361,-0.405764 1.224144,-0.529597 3.317753,-0.529597 h 2.732554 l 1.722246,-2.88528 c 1.877693,-3.145693 2.69424,-3.717456 3.834836,-2.685229 0.392768,0.35545 0.583011,0.829271 0.484384,1.206423 -0.350541,1.340467 -4.184448,7.208137 -4.821597,7.379295 -0.360455,0.09683 -1.955331,0.178019 -3.54417,0.180423 -2.102329,0.0032 -3.082422,-0.131252 -3.6,-0.493776 z"
       id="path1936" />
  </g>
</svg>
