<?xml version="1.0" encoding="UTF-8" standalone="no"?>
<!-- Created with Inkscape (http://www.inkscape.org/) -->

<svg
   width="63.779091mm"
   height="33.146996mm"
   viewBox="0 0 63.779091 33.146996"
   version="1.1"
   id="svg5"
   xml:space="preserve"
   xmlns:inkscape="http://www.inkscape.org/namespaces/inkscape"
   xmlns:sodipodi="http://sodipodi.sourceforge.net/DTD/sodipodi-0.dtd"
   xmlns="http://www.w3.org/2000/svg"
   xmlns:svg="http://www.w3.org/2000/svg"><sodipodi:namedview
     id="namedview7"
     pagecolor="#505050"
     bordercolor="#eeeeee"
     borderopacity="1"
     inkscape:showpageshadow="0"
     inkscape:pageopacity="0"
     inkscape:pagecheckerboard="0"
     inkscape:deskcolor="#505050"
     inkscape:document-units="mm"
     showgrid="false" /><defs
     id="defs2" /><g
     inkscape:label="Layer 1"
     inkscape:groupmode="layer"
     id="layer1"
     transform="translate(-65.336496,-104.62928)"><path
       style="stroke-width:0.0846667"
       d="m 98.693971,137.71277 c -0.0199,-0.0349 -0.0127,-7.49299 0.0162,-16.57349 l 0.0524,-16.51001 h 0.21167 0.21167 l -0.0315,16.51001 c -0.0173,9.0805 -0.0481,16.53857 -0.0685,16.57349 -0.0204,0.0349 -0.10873,0.0635 -0.19637,0.0635 -0.0876,0 -0.17565,-0.0286 -0.19559,-0.0635 z m -22.477566,-2.75166 -1.52197,-2.64583 -3.0213,-0.0423 -3.0213,-0.0423 -0.93125,-1.60867 c -2.06083,-3.55993 -2.38712,-4.13835 -2.38407,-4.22631 0.003,-0.0798 2.05971,-3.68876 2.74496,-4.81605 l 0.24702,-0.40637 -0.69392,-1.2023 c -2.49851,-4.32894 -2.35429,-4.05607 -2.24677,-4.25102 0.0554,-0.10047 0.8232,-1.42728 1.70619,-2.94848 l 1.60544,-2.76581 h 3.01052 3.01053 l 1.5085,-2.62467 1.5085,-2.62466 h 3.41144 3.411426 l 1.51037,2.62466 1.51037,2.62467 h 3.05397 3.05397 l 1.60543,2.76581 c 0.88299,1.5212 1.65078,2.84801 1.70619,2.94848 0.10752,0.19495 0.25174,-0.0779 -2.24676,4.25102 l -0.69393,1.2023 0.24702,0.40637 c 0.68846,1.13257 2.7422,4.73639 2.74496,4.81676 0.002,0.0508 -0.38012,0.75567 -0.84859,1.56633 -0.46848,0.81067 -1.21531,2.10259 -1.65962,2.87094 l -0.80784,1.397 -3.06431,0.0423 -3.06432,0.0423 -1.52392,2.64583 -1.52393,2.64583 h -3.410516 -3.41052 z m 8.834476,-0.80434 c 0.68899,-1.19909 1.28895,-2.23976 1.33324,-2.3126 0.0718,-0.11814 -0.82497,-1.77353 -2.39365,-4.41839 l -0.188306,-0.3175 h -2.65324 -2.65324 l -0.42014,0.74083 c -0.23108,0.40746 -0.82406,1.44095 -1.31773,2.29666 -0.49367,0.85571 -0.89759,1.5679 -0.89759,1.58266 0,0.0147 0.46939,0.83863 1.04307,1.83083 0.5737,0.99221 1.16704,2.02309 1.31855,2.29085 l 0.27548,0.48683 h 2.65042 2.65042 z m -4.062276,0.77712 c -0.0732,-0.0732 -0.13304,-0.1989 -0.13304,-0.2794 0,-0.28029 0.18419,-0.34955 0.92972,-0.34955 h 0.72653 l 0.45112,-0.762 c 0.4004,-0.67635 0.47829,-0.762 0.69289,-0.762 0.274056,0 0.450656,0.23729 0.357416,0.48025 -0.0791,0.2061 -0.859286,1.47103 -1.022386,1.65758 -0.18105,0.20709 -1.79807,0.2193 -2.00225,0.0151 z m -4.94595,-6.17461 c 0.70004,-1.21074 1.29074,-2.24479 1.31268,-2.2979 0.0219,-0.0531 -0.55809,-1.12943 -1.28895,-2.39183 l -1.32885,-2.29527 h -2.60053 c -2.37246,0 -2.61153,0.013 -2.72598,0.14816 -0.11882,0.14033 -0.60847,0.97435 -2.00947,3.42271 l -0.61411,1.07322 1.32904,2.29346 1.32905,2.29346 2.66216,-0.0223 2.66217,-0.0223 z m -4.11463,0.95482 c -0.16415,-0.23436 -0.16403,-0.27549 10e-4,-0.44078 0.0998,-0.0998 0.31034,-0.13304 0.8415,-0.13304 h 0.70845 l 0.45782,-0.74084 c 0.32028,-0.51828 0.51399,-0.74914 0.64483,-0.7685 0.22328,-0.033 0.43169,0.12027 0.43169,0.31755 0,0.17836 -0.89125,1.70501 -1.07882,1.84795 -0.0902,0.0688 -0.443,0.10584 -1.0069,0.10584 -0.801,0 -0.87819,-0.0145 -0.99982,-0.18818 z m 22.344636,-1.00345 1.32836,-2.29228 -0.61411,-1.07322 c -1.40101,-2.44836 -1.89066,-3.28238 -2.00947,-3.42271 -0.11445,-0.13517 -0.35352,-0.14816 -2.72598,-0.14816 h -2.60054 l -1.32885,2.29527 c -0.78721,1.35972 -1.30888,2.3473 -1.27986,2.42293 0.0269,0.0702 0.46072,0.83756 0.96395,1.70523 0.50323,0.86766 1.04215,1.80617 1.19761,2.08557 0.15545,0.2794 0.31937,0.55562 0.36425,0.61383 0.0622,0.0807 0.71104,0.10583 2.72894,0.10583 h 2.64733 z m -4.06549,0.98564 c -0.105,-0.16024 -0.11418,-0.24487 -0.0413,-0.381 0.0839,-0.15672 0.17219,-0.17501 0.84472,-0.17501 h 0.75106 l 0.45413,-0.74084 c 0.32795,-0.53499 0.50789,-0.74852 0.64762,-0.7685 0.22577,-0.0323 0.43818,0.11776 0.43818,0.30952 0,0.16579 -0.90329,1.71061 -1.08524,1.85598 -0.0866,0.0692 -0.43373,0.10584 -1.00333,0.10584 -0.82909,0 -0.87734,-0.01 -1.00583,-0.20599 z m -5.05098,-6.19833 1.35228,-2.34031 -0.93573,-1.61786 c -0.51465,-0.88981 -1.11071,-1.92265 -1.32458,-2.29518 l -0.388846,-0.67733 h -2.66509 -2.66508 l -0.38886,0.67733 c -0.21386,0.37253 -0.80993,1.40537 -1.32458,2.29518 l -0.93573,1.61786 1.35229,2.34031 1.35228,2.34032 h 2.60968 2.60969 z m -4.196516,0.8019 c -0.14293,-0.14294 -0.13051,-0.37042 0.0289,-0.52987 0.0997,-0.0997 0.31008,-0.13305 0.83862,-0.13305 h 0.70558 l 0.39288,-0.67015 c 0.4604,-0.78532 0.56754,-0.89019 0.83966,-0.8219 0.388686,0.0976 0.341986,0.36888 -0.22765,1.32272 l -0.53092,0.889 -0.97149,0.0237 c -0.68352,0.0167 -1.00235,-0.007 -1.07561,-0.0804 z m -4.86703,-6.09856 1.30097,-2.26065 -0.63066,-1.08369 c -0.34686,-0.59603 -0.95185,-1.63614 -1.34442,-2.31136 l -0.71377,-1.22767 -2.62108,-0.0223 -2.62109,-0.0224 -0.25795,0.44568 c -0.14187,0.24512 -0.74313,1.28826 -1.33614,2.31809 l -1.0782,1.8724 0.62686,1.09093 c 0.34477,0.60002 0.92352,1.60529 1.2861,2.23394 0.36258,0.62865 0.676,1.1721 0.69649,1.20768 0.0205,0.0356 1.24206,0.0546 2.71459,0.0423 l 2.67733,-0.0223 z m -4.11015,0.76204 c -0.1306,-0.1306 -0.1306,-0.4282 0,-0.5588 0.0628,-0.0628 0.37792,-0.10237 0.8255,-0.10362 l 0.7239,-0.002 0.45107,-0.76486 c 0.43046,-0.72988 0.46336,-0.76366 0.71967,-0.73881 0.41524,0.0403 0.4056,0.36299 -0.0332,1.11137 -0.19606,0.3344 -0.44844,0.73183 -0.56083,0.88317 l -0.20435,0.27517 h -0.91009 c -0.59496,0 -0.94527,-0.0352 -1.01169,-0.1016 z m 21.505366,0.6096 c 0.28206,-0.48895 0.87194,-1.51225 1.31083,-2.27401 l 0.79798,-1.38501 -1.05307,-1.83232 c -0.57919,-1.00779 -1.17982,-2.05141 -1.33473,-2.31917 l -0.28165,-0.48683 h -2.64068 -2.64068 l -1.32593,2.2963 c -0.72926,1.26296 -1.30623,2.34763 -1.28215,2.41038 0.0424,0.11042 2.23454,3.9453 2.47672,4.33268 l 0.11985,0.19169 2.67033,-0.0224 2.67033,-0.0223 z m -3.21736,-0.6096 c -0.0559,-0.0559 -0.10161,-0.18161 -0.10161,-0.2794 0,-0.31271 0.16505,-0.38089 0.92711,-0.38302 l 0.7239,-0.002 0.44817,-0.75998 c 0.44651,-0.75717 0.55345,-0.84141 0.89957,-0.70859 0.23653,0.0908 0.14458,0.45757 -0.30255,1.20685 -0.65321,1.09464 -0.54963,1.02776 -1.59171,1.02776 -0.58811,0 -0.93658,-0.0353 -1.00288,-0.1016 z m -6.28003,-4.0259 c 0.10357,-0.17462 0.69969,-1.20528 1.3247,-2.29037 l 1.13638,-1.97286 -0.24229,-0.44014 c -0.13326,-0.24207 -0.73055,-1.28786 -1.3273,-2.32397 l -1.085006,-1.88383 h -2.65064 -2.65063 l -0.44104,0.78316 c -0.24258,0.43074 -0.83675,1.46292 -1.32038,2.29372 l -0.87934,1.51054 1.33615,2.31938 1.33615,2.31939 2.63747,0.001 2.63747,10e-4 0.188306,-0.3175 z m -3.137946,-1.29684 c -0.0727,-0.13583 -0.0639,-0.22039 0.0391,-0.37771 0.12072,-0.18424 0.1996,-0.20492 0.86656,-0.22716 l 0.73375,-0.0245 0.43062,-0.70218 c 0.44214,-0.72095 0.68822,-0.90265 0.93973,-0.69391 0.208556,0.17309 0.146836,0.40615 -0.31057,1.17266 -0.65585,1.09906 -0.54153,1.02777 -1.648,1.02777 -0.88127,0 -0.96503,-0.0139 -1.05123,-0.17501 z m 35.777605,20.88419 c -0.77033,-0.21672 -1.05648,-0.87884 -0.58402,-1.3513 0.12277,-0.12277 0.2595,-0.22321 0.30386,-0.22321 0.0444,0 -0.0214,-0.12124 -0.14605,-0.26942 -0.2611,-0.3103 -0.24391,-0.65358 0.0483,-0.96465 l 0.17274,-0.18387 -0.21637,-0.31885 c -0.37925,-0.55885 -0.25511,-1.34976 0.26918,-1.71492 0.44768,-0.31182 0.73486,-0.3536 2.05711,-0.29933 l 1.26733,0.052 v 0.4525 0.45251 h -0.38671 c -0.36311,0 -0.38288,0.0116 -0.32416,0.1905 0.2701,0.82275 -0.38076,1.44272 -1.5284,1.45585 -0.50079,0.006 -0.59978,0.0308 -0.62427,0.15796 -0.0596,0.3096 0.1222,0.37494 1.1508,0.41352 0.72019,0.027 1.06969,0.0775 1.27188,0.18377 0.77544,0.40749 0.43841,1.52284 -0.56725,1.87724 -0.54119,0.19071 -1.64263,0.23636 -2.16399,0.0897 z m 1.77782,-0.68119 c 0.22149,-0.0925 0.29361,-0.17352 0.29361,-0.32961 0,-0.11381 -0.0551,-0.22809 -0.12251,-0.25394 -0.22518,-0.0864 -1.66519,-0.0799 -1.75301,0.008 -0.14447,0.14447 -0.0419,0.47618 0.18219,0.58914 0.28618,0.14427 1.03955,0.13701 1.39972,-0.0135 z m -0.4222,-2.87914 c 0.25388,-0.25389 0.26278,-0.46147 0.0323,-0.75443 -0.32501,-0.41318 -1.00986,-0.18864 -1.00986,0.33109 0,0.26054 0.34802,0.63116 0.59267,0.63116 0.0974,0 0.27055,-0.0935 0.38485,-0.20782 z m -9.48651,2.03563 c -0.34174,-0.15189 -0.62141,-0.46922 -0.72169,-0.81887 -0.0455,-0.15849 -0.0826,-1.05994 -0.0826,-2.00322 v -1.71506 h -0.59267 -0.59267 v -0.42333 -0.42333 h 1.143 1.143 v 2.07034 c 0,1.40191 0.032,2.14064 0.0992,2.28803 0.11607,0.25476 0.3751,0.33886 0.82307,0.26723 0.31671,-0.0506 0.32317,-0.0462 0.4252,0.29439 0.057,0.19021 0.0849,0.3645 0.0621,0.38732 -0.19271,0.19271 -1.32973,0.2437 -1.70591,0.0765 z m 4.02112,0.0404 c -0.35017,-0.10651 -0.70814,-0.31607 -0.89972,-0.52668 -0.8454,-0.92943 -0.59757,-2.57137 0.47036,-3.11619 1.3916,-0.70994 2.88523,0.18685 2.88523,1.73231 0,1.34418 -1.21373,2.2884 -2.45587,1.91056 z m 0.97393,-0.95806 c 0.44734,-0.38593 0.46791,-1.42923 0.0367,-1.86047 -0.57729,-0.57729 -1.26405,-0.084 -1.26405,0.90797 0,0.9605 0.64125,1.45814 1.22738,0.9525 z m -11.47206,-1.53612 v -2.50671 h 1.01184 c 1.31208,0 1.82438,0.10994 2.18288,0.46844 0.23957,0.23957 0.27662,0.33407 0.27662,0.70548 0,0.35895 -0.0428,0.47763 -0.26277,0.72813 -0.14452,0.16461 -0.31597,0.29928 -0.381,0.29928 -0.21464,0 -0.12289,0.15486 0.12388,0.20905 0.13315,0.0293 0.35223,0.16813 0.48683,0.30862 0.21744,0.22697 0.24473,0.3155 0.24473,0.79402 0,0.63967 -0.15801,0.90634 -0.72717,1.22721 -0.34351,0.19365 -0.47717,0.21307 -1.66466,0.24188 l -1.29118,0.0313 z m 2.27996,1.51809 c 0.2653,-0.1372 0.34472,-0.28278 0.34472,-0.63194 0,-0.37945 -0.26867,-0.54704 -0.93755,-0.58483 l -0.58645,-0.0331 v 0.68689 0.68689 h 0.46987 c 0.25843,0 0.57766,-0.0557 0.70941,-0.12387 z m -0.0249,-2.29038 c 0.17788,-0.24327 0.14318,-0.60485 -0.0726,-0.75595 -0.11261,-0.0789 -0.36762,-0.1318 -0.635,-0.1318 h -0.44683 v 0.5605 0.56051 l 0.51938,-0.0376 c 0.37941,-0.0275 0.55053,-0.0802 0.635,-0.1957 z m 2.93245,-6.51661 c -0.37906,-0.16479 -0.61479,-0.58329 -0.61518,-1.09215 -2.6e-4,-0.36065 0.0364,-0.44797 0.28776,-0.68502 0.30134,-0.28421 0.90119,-0.49193 1.72275,-0.59658 0.50491,-0.0643 0.56467,-0.18791 0.22142,-0.45792 -0.28297,-0.22258 -0.74039,-0.22691 -1.30504,-0.0124 l -0.42927,0.16311 -0.16398,-0.26895 c -0.0902,-0.14792 -0.16414,-0.31383 -0.16431,-0.36869 -4.2e-4,-0.1452 0.89467,-0.46008 1.45814,-0.51293 1.017,-0.0954 1.74488,0.34506 1.92005,1.16184 0.0511,0.23806 0.0928,0.94531 0.0928,1.57167 v 1.13884 h -0.46406 c -0.42437,0 -0.46859,-0.0181 -0.51717,-0.21167 -0.0292,-0.11642 -0.0585,-0.21119 -0.0651,-0.2106 -0.007,6e-4 -0.23643,0.11489 -0.51075,0.254 -0.55265,0.28026 -1.02265,0.32104 -1.46807,0.12741 z m 1.62695,-0.92423 c 0.16833,-0.11029 0.21288,-0.20995 0.21288,-0.4762 0,-0.29569 -0.0239,-0.33671 -0.1963,-0.33671 -0.10796,0 -0.39543,0.0591 -0.63882,0.13141 -0.54732,0.16254 -0.72696,0.43928 -0.46969,0.72356 0.13016,0.14383 0.23079,0.1705 0.52021,0.13788 0.19736,-0.0222 0.45463,-0.10322 0.57172,-0.17994 z m 4.22219,0.95731 c -0.3803,-0.11018 -0.75989,-0.49783 -0.86769,-0.88611 -0.051,-0.18358 -0.0929,-0.72431 -0.0931,-1.20161 l -4.8e-4,-0.86784 h -0.508 -0.508 v -0.37194 c 0,-0.4281 0.0661,-0.47472 0.67332,-0.47472 h 0.40547 l 0.0584,-0.59267 0.0584,-0.59267 h 0.46054 0.46054 v 0.59267 0.59267 h 0.80432 0.80434 v 0.42333 0.42333 h -0.81183 -0.81181 l 0.0287,0.92852 c 0.0364,1.18057 0.0771,1.23256 0.95831,1.22538 0.60399,-0.005 0.62821,0.003 0.67787,0.21167 0.0283,0.11922 0.0702,0.27997 0.0931,0.35722 0.0769,0.25997 -1.2304,0.42164 -1.8823,0.23277 z m 8.12085,-0.0331 c -0.37906,-0.16479 -0.61479,-0.58329 -0.61518,-1.09215 -2.6e-4,-0.36065 0.0364,-0.44797 0.28776,-0.68502 0.30134,-0.28421 0.90119,-0.49193 1.72275,-0.59658 0.50491,-0.0643 0.56467,-0.18791 0.22142,-0.45792 -0.28297,-0.22258 -0.74039,-0.22691 -1.30504,-0.0124 l -0.42927,0.16311 -0.16399,-0.26895 c -0.0902,-0.14792 -0.16413,-0.31383 -0.1643,-0.36869 -4.2e-4,-0.1452 0.89467,-0.46008 1.45814,-0.51293 1.017,-0.0954 1.74488,0.34506 1.92005,1.16184 0.0511,0.23806 0.0928,0.94531 0.0928,1.57167 v 1.13884 h -0.46406 c -0.42438,0 -0.46859,-0.0181 -0.51718,-0.21167 -0.0292,-0.11642 -0.0585,-0.21119 -0.0651,-0.2106 -0.007,6e-4 -0.23643,0.11489 -0.51075,0.254 -0.55265,0.28026 -1.02265,0.32104 -1.46807,0.12741 z m 1.62695,-0.92423 c 0.16833,-0.11029 0.21288,-0.20995 0.21288,-0.4762 0,-0.29569 -0.0239,-0.33671 -0.1963,-0.33671 -0.10796,0 -0.39543,0.0591 -0.63882,0.13141 -0.54732,0.16254 -0.72696,0.43928 -0.46969,0.72356 0.13016,0.14383 0.23079,0.1705 0.52021,0.13788 0.19735,-0.0222 0.45463,-0.10322 0.57172,-0.17994 z m -20.53044,-1.53258 v -2.49767 h 0.55033 0.55034 v 2.032 2.032 h 1.10066 1.10067 v 0.46567 0.46567 h -1.651 -1.651 z m 13.71599,-0.21167 v -2.70933 h 0.56077 0.56077 l -0.0362,1.016 c -0.0199,0.5588 -0.0263,1.016 -0.0142,1.016 0.0121,0 0.1609,-0.0942 0.33064,-0.20943 0.82362,-0.55893 1.80523,-0.30083 2.05743,0.54096 0.0553,0.18451 0.0968,0.90908 0.0968,1.68913 v 1.36601 h -0.54451 -0.5445 l -0.027,-1.36167 c -0.0244,-1.23253 -0.0426,-1.37305 -0.19134,-1.48167 -0.2504,-0.18283 -0.59856,-0.14392 -0.88749,0.0992 l -0.26049,0.21919 v 1.26247 1.26248 h -0.55034 -0.55033 z m 8.97467,0.80434 v -1.905 h 0.42172 c 0.37953,0 0.42705,0.0212 0.47499,0.21225 l 0.0533,0.21225 0.28995,-0.25459 c 0.43001,-0.37755 0.91684,-0.32157 1.1549,0.13279 l 0.11201,0.21378 0.11055,-0.20656 c 0.20149,-0.37649 0.74118,-0.50649 1.08959,-0.26245 0.39364,0.27572 0.44168,0.51416 0.44168,2.19199 v 1.57054 h -0.508 -0.508 l -0.001,-1.29117 c -0.001,-1.45424 -0.0352,-1.67217 -0.25974,-1.67217 -0.27403,0 -0.33177,0.28639 -0.33177,1.64544 v 1.3179 h -0.42334 -0.42333 v -1.33849 c 0,-1.06057 -0.0264,-1.37261 -0.12706,-1.50283 -0.12468,-0.16128 -0.13021,-0.16062 -0.29633,0.0355 -0.15327,0.18097 -0.16928,0.32312 -0.16928,1.50283 v 1.30296 h -0.55033 -0.55033 z m -17.10321,-7.82611 c -0.35016,-0.10652 -0.70814,-0.31608 -0.89971,-0.52669 -0.84541,-0.92943 -0.59758,-2.57137 0.47035,-3.11619 1.3916,-0.70994 2.88524,0.18685 2.88524,1.73231 0,1.34417 -1.21373,2.28841 -2.45588,1.91057 z m 0.97393,-0.95807 c 0.44735,-0.38593 0.46792,-1.42923 0.0367,-1.86047 -0.5773,-0.57729 -1.26406,-0.084 -1.26406,0.90797 0,0.9605 0.64126,1.45814 1.22738,0.9525 z m -5.63005,-1.0795 v -2.032 h -0.762 -0.76201 v -0.46567 -0.46566 h 2.07435 2.07433 v 0.46566 0.46567 h -0.762 -0.762 v 2.032 2.03201 h -0.55033 -0.55034 z m 7.78934,0.127 v -1.905 h 0.42172 c 0.37953,0 0.42705,0.0212 0.47499,0.21225 l 0.0533,0.21225 0.28996,-0.25458 c 0.43,-0.37755 0.91683,-0.32158 1.15489,0.13278 l 0.11201,0.21379 0.11055,-0.20656 c 0.20148,-0.3765 0.74117,-0.50649 1.08958,-0.26246 0.39364,0.27572 0.44168,0.51416 0.44168,2.19199 v 1.57055 h -0.508 -0.508 l -10e-4,-1.29118 c -0.001,-1.45424 -0.0352,-1.67216 -0.25974,-1.67216 -0.27402,0 -0.33176,0.28639 -0.33176,1.64543 v 1.31791 h -0.42334 -0.42333 v -1.33849 c 0,-1.06058 -0.0264,-1.37261 -0.12706,-1.50284 -0.12468,-0.16128 -0.13021,-0.16062 -0.29633,0.0355 -0.15327,0.18098 -0.16928,0.32312 -0.16928,1.50284 v 1.30296 h -0.55033 -0.55033 z"
       id="path179" /></g></svg>
